<svg width="32" height="33" viewBox="0 0 32 33" fill="none" xmlns="http://www.w3.org/2000/svg">
<path d="M2.66669 13.6696V19.003C2.66669 21.6696 4.00002 23.003 6.66669 23.003H8.57335C9.06669 23.003 9.56002 23.1496 9.98669 23.403L13.88 25.843C17.24 27.9496 20 26.4163 20 22.4563V10.2163C20 6.24297 17.24 4.72297 13.88 6.82964L9.98669 9.26964C9.56002 9.52297 9.06669 9.66964 8.57335 9.66964H6.66669C4.00002 9.66964 2.66669 11.003 2.66669 13.6696Z" stroke="#292D32" stroke-width="1.5"/>
<path d="M24 11.0032C26.3733 14.1632 26.3733 18.5098 24 21.6698" stroke="#292D32" stroke-width="1.5" stroke-linecap="round" stroke-linejoin="round"/>
<path d="M26.44 7.66968C30.2933 12.803 30.2933 19.8697 26.44 25.003" stroke="#292D32" stroke-width="1.5" stroke-linecap="round" stroke-linejoin="round"/>
</svg>
