<svg width="32" height="33" viewBox="0 0 32 33" fill="none" xmlns="http://www.w3.org/2000/svg">
<path d="M14.3334 30.3365H17.6934C18.9734 30.3365 19.8 29.4298 19.56 28.3232L19.0133 25.9099H13.0133L12.4667 28.3232C12.2267 29.3632 13.1334 30.3365 14.3334 30.3365Z" stroke="#292D32" stroke-width="1.5" stroke-linecap="round" stroke-linejoin="round"/>
<path d="M19.0134 25.8967L21.3201 23.8433C22.6134 22.6966 22.6667 21.8965 21.6401 20.6032L17.5734 15.4433C16.7201 14.3633 15.3201 14.3633 14.4667 15.4433L10.4001 20.6032C9.37341 21.8965 9.3734 22.7366 10.7201 23.8433L13.0267 25.8967" stroke="#292D32" stroke-width="1.5" stroke-linecap="round" stroke-linejoin="round"/>
<path d="M16.0134 15.1633V18.5367" stroke="#292D32" stroke-width="1.5" stroke-linecap="round" stroke-linejoin="round"/>
<path d="M16.6933 7.00317H15.3599C14.6266 7.00317 14.0266 6.40317 14.0266 5.66984V4.33651C14.0266 3.60317 14.6266 3.00317 15.3599 3.00317H16.6933C17.4266 3.00317 18.0266 3.60317 18.0266 4.33651V5.66984C18.0266 6.40317 17.4266 7.00317 16.6933 7.00317Z" stroke="#292D32" stroke-width="1.5" stroke-linecap="round" stroke-linejoin="round"/>
<path d="M4.35994 19.2298H5.69328C6.42661 19.2298 7.02661 18.6298 7.02661 17.8965V16.5632C7.02661 15.8298 6.42661 15.2297 5.69328 15.2297H4.35994C3.62661 15.2297 3.02661 15.8298 3.02661 16.5632V17.8965C3.02661 18.6298 3.62661 19.2298 4.35994 19.2298Z" stroke="#292D32" stroke-width="1.5" stroke-linecap="round" stroke-linejoin="round"/>
<path d="M27.6401 19.2298H26.3067C25.5734 19.2298 24.9734 18.6298 24.9734 17.8965V16.5632C24.9734 15.8298 25.5734 15.2297 26.3067 15.2297H27.6401C28.3734 15.2297 28.9734 15.8298 28.9734 16.5632V17.8965C28.9734 18.6298 28.3734 19.2298 27.6401 19.2298Z" stroke="#292D32" stroke-width="1.5" stroke-linecap="round" stroke-linejoin="round"/>
<path d="M14.0267 5.08325C8.94667 5.68325 5 9.9899 5 15.2299" stroke="#292D32" stroke-width="1.5" stroke-linecap="round" stroke-linejoin="round"/>
<path d="M26.9999 15.2299C26.9999 10.0032 23.0799 5.70992 18.0266 5.08325" stroke="#292D32" stroke-width="1.5" stroke-linecap="round" stroke-linejoin="round"/>
</svg>
