<svg width="24" height="25" viewBox="0 0 24 25" fill="none" xmlns="http://www.w3.org/2000/svg">
<path d="M16.5 6.22559H13.5C12.9477 6.22559 12.5 6.67331 12.5 7.22559V10.2256H16.5C16.6137 10.2231 16.7216 10.276 16.7892 10.3675C16.8568 10.459 16.8758 10.5776 16.84 10.6856L16.1 12.8856C16.0318 13.0875 15.8431 13.224 15.63 13.2256H12.5V20.7256C12.5 21.0017 12.2761 21.2256 12 21.2256H9.5C9.22386 21.2256 9 21.0017 9 20.7256V13.2256H7.5C7.22386 13.2256 7 13.0017 7 12.7256V10.7256C7 10.4495 7.22386 10.2256 7.5 10.2256H9V7.22559C9 5.01645 10.7909 3.22559 13 3.22559H16.5C16.7761 3.22559 17 3.44945 17 3.72559V5.72559C17 6.00173 16.7761 6.22559 16.5 6.22559Z" fill="black"/>
</svg>
