<svg width="24" height="25" viewBox="0 0 24 25" fill="none" xmlns="http://www.w3.org/2000/svg">
<path fill-rule="evenodd" clip-rule="evenodd" d="M16 3.22559H8C5.23858 3.22559 3 5.46417 3 8.22559V16.2256C3 18.987 5.23858 21.2256 8 21.2256H16C18.7614 21.2256 21 18.987 21 16.2256V8.22559C21 5.46417 18.7614 3.22559 16 3.22559ZM19.25 16.2256C19.2445 18.0182 17.7926 19.4701 16 19.4756H8C6.20735 19.4701 4.75549 18.0182 4.75 16.2256V8.22559C4.75549 6.43294 6.20735 4.98108 8 4.97559H16C17.7926 4.98108 19.2445 6.43294 19.25 8.22559V16.2256ZM16.75 8.47559C17.3023 8.47559 17.75 8.02787 17.75 7.47559C17.75 6.92331 17.3023 6.47559 16.75 6.47559C16.1977 6.47559 15.75 6.92331 15.75 7.47559C15.75 8.02787 16.1977 8.47559 16.75 8.47559ZM12 7.72559C9.51472 7.72559 7.5 9.74031 7.5 12.2256C7.5 14.7109 9.51472 16.7256 12 16.7256C14.4853 16.7256 16.5 14.7109 16.5 12.2256C16.5027 11.0313 16.0294 9.88516 15.1849 9.04067C14.3404 8.19618 13.1943 7.72293 12 7.72559ZM9.25 12.2256C9.25 13.7444 10.4812 14.9756 12 14.9756C13.5188 14.9756 14.75 13.7444 14.75 12.2256C14.75 10.7068 13.5188 9.47559 12 9.47559C10.4812 9.47559 9.25 10.7068 9.25 12.2256Z" fill="black"/>
</svg>
