<svg width="24" height="25" viewBox="0 0 24 25" fill="none" xmlns="http://www.w3.org/2000/svg">
<path fill-rule="evenodd" clip-rule="evenodd" d="M5 3.22559H19C20.1046 3.22559 21 4.12102 21 5.22559V19.2256C21 20.3302 20.1046 21.2256 19 21.2256H5C3.89543 21.2256 3 20.3302 3 19.2256V5.22559C3 4.12102 3.89543 3.22559 5 3.22559ZM8 18.2256C8.27614 18.2256 8.5 18.0017 8.5 17.7256V10.7256C8.5 10.4495 8.27614 10.2256 8 10.2256H6.5C6.22386 10.2256 6 10.4495 6 10.7256V17.7256C6 18.0017 6.22386 18.2256 6.5 18.2256H8ZM7.25 9.22559C6.42157 9.22559 5.75 8.55402 5.75 7.72559C5.75 6.89716 6.42157 6.22559 7.25 6.22559C8.07843 6.22559 8.75 6.89716 8.75 7.72559C8.75 8.55402 8.07843 9.22559 7.25 9.22559ZM17.5 18.2256C17.7761 18.2256 18 18.0017 18 17.7256V13.1256C18.0325 11.5364 16.8576 10.1801 15.28 9.98559C14.177 9.88484 13.1083 10.4 12.5 11.3256V10.7256C12.5 10.4495 12.2761 10.2256 12 10.2256H10.5C10.2239 10.2256 10 10.4495 10 10.7256V17.7256C10 18.0017 10.2239 18.2256 10.5 18.2256H12C12.2761 18.2256 12.5 18.0017 12.5 17.7256V13.9756C12.5 13.1472 13.1716 12.4756 14 12.4756C14.8284 12.4756 15.5 13.1472 15.5 13.9756V17.7256C15.5 18.0017 15.7239 18.2256 16 18.2256H17.5Z" fill="black"/>
</svg>
