<svg width="25" height="25" viewBox="0 0 25 25" fill="none" xmlns="http://www.w3.org/2000/svg">
<path fill-rule="evenodd" clip-rule="evenodd" d="M12.3333 3.33643C7.36476 3.33643 3.33331 7.36788 3.33331 12.3364C3.33331 17.305 7.36476 21.3364 12.3333 21.3364C17.2921 21.3364 21.3333 17.305 21.3333 12.3364C21.3333 7.36788 17.2921 3.33643 12.3333 3.33643ZM18.278 7.48502C19.3517 8.79305 19.996 10.4622 20.0155 12.2681C19.7617 12.2193 17.2237 11.7019 14.6663 12.024C14.6077 11.8971 14.5589 11.7605 14.5003 11.6238C14.3441 11.2529 14.1685 10.8722 13.9927 10.511C16.8235 9.35923 18.112 7.69977 18.278 7.48502ZM12.3333 4.66398C14.2856 4.66398 16.0719 5.39609 17.4288 6.59674C17.2921 6.79196 16.1305 8.34402 13.3973 9.36896C12.1381 7.05552 10.7422 5.16181 10.5275 4.86897C11.1033 4.73231 11.7086 4.66398 12.3333 4.66398ZM9.06327 5.38632C9.26825 5.65964 10.6348 7.56311 11.9136 9.82774C8.32138 10.7844 5.14893 10.7648 4.80728 10.7648C5.30511 8.38307 6.91574 6.4015 9.06327 5.38632ZM4.64134 12.3462C4.64134 12.2681 4.64134 12.19 4.64134 12.1119C4.97322 12.1216 8.70207 12.1705 12.5383 11.0186C12.7628 11.4481 12.9678 11.8874 13.163 12.3266C13.0654 12.3559 12.958 12.3852 12.8604 12.4145C8.8973 13.6932 6.78884 17.1878 6.61314 17.4806C5.39296 16.1238 4.64134 14.318 4.64134 12.3462ZM12.3333 20.0284C10.5567 20.0284 8.91683 19.4232 7.61856 18.408C7.75522 18.1249 9.31702 15.1184 13.6511 13.6054C13.6706 13.5956 13.6804 13.5956 13.6999 13.5859C14.7834 16.3874 15.2227 18.7398 15.3398 19.4134C14.4125 19.8136 13.3973 20.0284 12.3333 20.0284ZM16.6185 18.7106C16.5405 18.242 16.1305 15.9969 15.125 13.2344C17.5361 12.8537 19.6446 13.4785 19.9082 13.5664C19.5763 15.7041 18.3463 17.549 16.6185 18.7106Z" fill="black"/>
</svg>
