<svg width="25" height="25" viewBox="0 0 25 25" fill="none" xmlns="http://www.w3.org/2000/svg">
<path fill-rule="evenodd" clip-rule="evenodd" d="M5.33331 3.33643H19.3333C20.4379 3.33643 21.3333 4.23186 21.3333 5.33643V19.3364C21.3333 20.441 20.4379 21.3364 19.3333 21.3364H5.33331C4.22874 21.3364 3.33331 20.441 3.33331 19.3364V5.33643C3.33331 4.23186 4.22874 3.33643 5.33331 3.33643ZM8.33331 18.3364C8.60945 18.3364 8.83331 18.1125 8.83331 17.8364V10.8364C8.83331 10.5603 8.60945 10.3364 8.33331 10.3364H6.83331C6.55717 10.3364 6.33331 10.5603 6.33331 10.8364V17.8364C6.33331 18.1125 6.55717 18.3364 6.83331 18.3364H8.33331ZM7.58331 9.33643C6.75488 9.33643 6.08331 8.66486 6.08331 7.83643C6.08331 7.008 6.75488 6.33643 7.58331 6.33643C8.41174 6.33643 9.08331 7.008 9.08331 7.83643C9.08331 8.66486 8.41174 9.33643 7.58331 9.33643ZM17.8333 18.3364C18.1094 18.3364 18.3333 18.1125 18.3333 17.8364V13.2364C18.3658 11.6472 17.1909 10.2909 15.6133 10.0964C14.5103 9.99568 13.4416 10.5108 12.8333 11.4364V10.8364C12.8333 10.5603 12.6094 10.3364 12.3333 10.3364H10.8333C10.5572 10.3364 10.3333 10.5603 10.3333 10.8364V17.8364C10.3333 18.1125 10.5572 18.3364 10.8333 18.3364H12.3333C12.6094 18.3364 12.8333 18.1125 12.8333 17.8364V14.0864C12.8333 13.258 13.5049 12.5864 14.3333 12.5864C15.1617 12.5864 15.8333 13.258 15.8333 14.0864V17.8364C15.8333 18.1125 16.0572 18.3364 16.3333 18.3364H17.8333Z" fill="black"/>
</svg>
