<svg width="25" height="25" viewBox="0 0 25 25" fill="none" xmlns="http://www.w3.org/2000/svg">
<path d="M21.3061 7.05383C20.8417 7.67335 20.2803 8.21376 19.6436 8.65419C19.6436 8.81602 19.6436 8.97785 19.6436 9.14868C19.6487 12.0875 18.4748 14.9055 16.3851 16.9709C14.2953 19.0363 11.4645 20.1763 8.52736 20.1353C6.8293 20.141 5.15299 19.7533 3.62974 19.0025C3.5476 18.9666 3.49462 18.8854 3.49493 18.7957V18.6968C3.49493 18.5677 3.59955 18.4631 3.72859 18.4631C5.39774 18.408 7.00733 17.8293 8.32965 16.8088C6.81884 16.7783 5.4595 15.8833 4.83391 14.5071C4.80232 14.432 4.81215 14.3457 4.85988 14.2796C4.9076 14.2135 4.98632 14.1771 5.06757 14.1835C5.52674 14.2296 5.9905 14.1869 6.43352 14.0576C4.76571 13.7114 3.51253 12.3268 3.33318 10.6321C3.32681 10.5508 3.36323 10.4721 3.42931 10.4243C3.49538 10.3766 3.58156 10.3667 3.6567 10.3984C4.10426 10.5959 4.5874 10.6999 5.07655 10.704C3.61515 9.74489 2.98392 7.92048 3.53986 6.26265C3.59725 6.10156 3.73513 5.98255 3.90281 5.94937C4.0705 5.91618 4.24328 5.97371 4.35764 6.10082C6.32971 8.19968 9.03935 9.45039 11.9152 9.58922C11.8416 9.29528 11.8054 8.99319 11.8074 8.69015C11.8343 7.10115 12.8175 5.68564 14.2967 5.1063C15.7758 4.52697 17.4582 4.89846 18.5563 6.04687C19.3047 5.90428 20.0283 5.65288 20.704 5.30064C20.7535 5.26974 20.8163 5.26974 20.8658 5.30064C20.8967 5.35016 20.8967 5.41295 20.8658 5.46247C20.5385 6.21195 19.9856 6.84055 19.2842 7.26062C19.8984 7.18939 20.5018 7.0445 21.0815 6.82907C21.1303 6.79585 21.1944 6.79585 21.2432 6.82907C21.2841 6.84777 21.3147 6.88354 21.3268 6.92685C21.3389 6.97016 21.3313 7.01661 21.3061 7.05383Z" fill="black"/>
</svg>
