<svg width="116" height="20" viewBox="0 0 116 20" fill="none" xmlns="http://www.w3.org/2000/svg">
<g clip-path="url(#clip0_1_568)">
<path d="M9.07088 0.948769C9.41462 0.13231 10.5854 0.132311 10.9291 0.948771L12.9579 5.76766C13.1029 6.11186 13.4306 6.34704 13.8067 6.37683L19.0727 6.7939C19.9649 6.86457 20.3267 7.96456 19.6469 8.53983L15.6348 11.9351C15.3482 12.1776 15.223 12.5582 15.3106 12.9208L16.5363 17.9974C16.744 18.8575 15.7969 19.5374 15.033 19.0765L10.5245 16.356C10.2025 16.1616 9.7975 16.1616 9.47548 16.356L4.96699 19.0765C4.20311 19.5374 3.25596 18.8575 3.46363 17.9974L4.68942 12.9208C4.77698 12.5582 4.65182 12.1776 4.36526 11.9351L0.353062 8.53983C-0.326718 7.96456 0.0350679 6.86457 0.927291 6.7939L6.19336 6.37683C6.5695 6.34704 6.89716 6.11186 7.04207 5.76766L9.07088 0.948769Z" fill="black"/>
<path d="M33.0708 0.948769C33.4146 0.13231 34.5853 0.132311 34.9291 0.948771L36.9578 5.76766C37.1028 6.11186 37.4305 6.34704 37.8066 6.37683L43.0726 6.7939C43.9648 6.86457 44.3266 7.96456 43.6468 8.53983L39.6347 11.9351C39.3482 12.1776 39.2229 12.5582 39.3105 12.9208L40.5363 17.9974C40.7439 18.8575 39.7968 19.5374 39.0329 19.0765L34.5245 16.356C34.2024 16.1616 33.7974 16.1616 33.4754 16.356L28.9669 19.0765C28.2031 19.5374 27.2559 18.8575 27.4636 17.9974L28.6894 12.9208C28.7769 12.5582 28.6518 12.1776 28.3652 11.9351L24.353 8.53983C23.6732 7.96456 24.035 6.86457 24.9272 6.7939L30.1933 6.37683C30.5694 6.34704 30.8971 6.11186 31.042 5.76766L33.0708 0.948769Z" fill="black"/>
<path d="M57.0708 0.948769C57.4145 0.13231 58.5853 0.132311 58.929 0.948771L60.9578 5.76766C61.1028 6.11186 61.4304 6.34704 61.8065 6.37683L67.0725 6.7939C67.9648 6.86457 68.3265 7.96456 67.6468 8.53983L63.6347 11.9351C63.3481 12.1776 63.2229 12.5582 63.3104 12.9208L64.5362 17.9974C64.7439 18.8575 63.7968 19.5374 63.0329 19.0765L58.5244 16.356C58.2024 16.1616 57.7974 16.1616 57.4754 16.356L52.9669 19.0765C52.203 19.5374 51.2558 18.8575 51.4635 17.9974L52.6893 12.9208C52.7769 12.5582 52.6517 12.1776 52.3651 11.9351L48.3529 8.53983C47.6732 7.96456 48.0349 6.86457 48.9272 6.7939L54.1932 6.37683C54.5694 6.34704 54.897 6.11186 55.0419 5.76766L57.0708 0.948769Z" fill="black"/>
<path d="M81.0708 0.948769C81.4145 0.13231 82.5853 0.132311 82.929 0.948771L84.9578 5.76766C85.1028 6.11186 85.4304 6.34704 85.8065 6.37683L91.0725 6.7939C91.9648 6.86457 92.3265 7.96456 91.6468 8.53983L87.6347 11.9351C87.3481 12.1776 87.2229 12.5582 87.3104 12.9208L88.5362 17.9974C88.7439 18.8575 87.7968 19.5374 87.0329 19.0765L82.5244 16.356C82.2024 16.1616 81.7974 16.1616 81.4754 16.356L76.9669 19.0765C76.203 19.5374 75.2558 18.8575 75.4635 17.9974L76.6893 12.9208C76.7769 12.5582 76.6517 12.1776 76.3651 11.9351L72.3529 8.53983C71.6732 7.96456 72.0349 6.86457 72.9272 6.7939L78.1932 6.37683C78.5694 6.34704 78.897 6.11186 79.0419 5.76766L81.0708 0.948769Z" fill="black"/>
<path d="M105.071 0.948769C105.414 0.13231 106.585 0.132311 106.929 0.948771L108.958 5.76766C109.103 6.11186 109.43 6.34704 109.806 6.37683L115.072 6.7939C115.965 6.86457 116.326 7.96456 115.647 8.53983L111.635 11.9351C111.348 12.1776 111.223 12.5582 111.31 12.9208L112.536 17.9974C112.744 18.8575 111.797 19.5374 111.033 19.0765L106.524 16.356C106.202 16.1616 105.797 16.1616 105.475 16.356L100.967 19.0765C100.203 19.5374 99.2558 18.8575 99.4634 17.9974L100.689 12.9208C100.777 12.5582 100.652 12.1776 100.365 11.9351L96.3529 8.53983C95.6731 7.96456 96.0349 6.86457 96.9271 6.7939L102.193 6.37683C102.569 6.34704 102.897 6.11186 103.042 5.76766L105.071 0.948769Z" fill="black"/>
</g>
<defs>
<clipPath id="clip0_1_568">
<rect width="116" height="18.8889" fill="white" transform="translate(0 0.336426)"/>
</clipPath>
</defs>
</svg>
