<svg width="24" height="25" viewBox="0 0 24 25" fill="none" xmlns="http://www.w3.org/2000/svg">
<path d="M20.9728 6.94299C20.5084 7.56251 19.947 8.10292 19.3103 8.54335C19.3103 8.70518 19.3103 8.86701 19.3103 9.03784C19.3154 11.9767 18.1415 14.7947 16.0518 16.8601C13.962 18.9255 11.1312 20.0655 8.19405 20.0245C6.49599 20.0302 4.81967 19.6425 3.29642 18.8917C3.21428 18.8558 3.16131 18.7746 3.16162 18.6849V18.586C3.16162 18.4569 3.26623 18.3523 3.39527 18.3523C5.06442 18.2972 6.67402 17.7185 7.99634 16.698C6.48553 16.6675 5.12619 15.7725 4.5006 14.3963C4.46901 14.3212 4.47884 14.2349 4.52657 14.1688C4.57429 14.1027 4.653 14.0663 4.73425 14.0727C5.19342 14.1188 5.65718 14.0761 6.1002 13.9468C4.43239 13.6006 3.17921 12.216 2.99986 10.5213C2.99349 10.44 3.02992 10.3613 3.096 10.3135C3.16207 10.2658 3.24824 10.2559 3.32338 10.2876C3.77094 10.4851 4.25409 10.5891 4.74324 10.5932C3.28184 9.63405 2.65061 7.80964 3.20655 6.15181C3.26394 5.99072 3.40181 5.87171 3.5695 5.83853C3.73718 5.80534 3.90996 5.86287 4.02432 5.98998C5.99639 8.08884 8.70604 9.33955 11.5819 9.47838C11.5083 9.18444 11.4721 8.88235 11.4741 8.57931C11.501 6.99031 12.4842 5.5748 13.9634 4.99546C15.4425 4.41613 17.1249 4.78762 18.223 5.93603C18.9714 5.79344 19.695 5.54204 20.3707 5.1898C20.4202 5.1589 20.483 5.1589 20.5325 5.1898C20.5634 5.23932 20.5634 5.30211 20.5325 5.35163C20.2052 6.10111 19.6523 6.72971 18.9509 7.14978C19.5651 7.07855 20.1685 6.93366 20.7482 6.71823C20.797 6.68501 20.8611 6.68501 20.9099 6.71823C20.9508 6.73693 20.9814 6.7727 20.9935 6.81601C21.0056 6.85932 20.998 6.90577 20.9728 6.94299Z" fill="black"/>
</svg>
